<svg version="1.1" class="logo-festcolor" xmlns="http://www.w3.org/2000/svg" xmlns:xlink="http://www.w3.org/1999/xlink" x="0px" y="0px"
	 width="140px" height="86px" viewBox="0 0 140 86" style="enable-background:new 0 0 140 86;" xml:space="preserve">
<style type="text/css">
	.st0{fill:#BE0D0D;}
	.st1{fill:#FEC800;}
	.st2{fill:#004D8D;}
</style>
<g>
	<path class="st0" d="M26.5,73.3c0.9,0,1.5,0.2,1.9,0.6c0,0.2-0.1,0.5-0.3,0.7c-0.2,0.2-0.3,0.3-0.6,0.2c-0.3-0.1-0.6-0.3-1.1-0.3
		c-0.8,0-1.3,0.6-1.3,1.3c0,0.5,0.3,0.9,1.2,1.7c0.9,0.8,1.6,1.5,1.6,2.7c0,0.9-0.4,1.6-0.9,2.1c-0.6,0.5-1.2,0.8-2.2,0.8
		c-1,0-1.8-0.4-2.3-0.8c-0.2-0.1-0.2-0.3-0.2-0.4c0-0.4,0.2-0.8,0.5-1c0.4,0.4,1.2,0.9,2.1,0.9c0.8,0,1.4-0.6,1.4-1.3
		c0-0.5-0.3-0.9-1.1-1.8c-1.2-1.1-1.5-1.9-1.5-2.7c0-0.8,0.3-1.4,0.9-2C25,73.6,25.8,73.3,26.5,73.3L26.5,73.3z"/>
	<path class="st0" d="M35.1,81.4c0,0.3,0,0.7-0.3,0.9C34.4,82.7,33.6,83,33,83c-0.4,0-0.7-0.1-0.6-1c0.1-0.6,0.2-1,0.3-1.2l-0.1,0
		c-1.3,2-2.3,2.3-3.1,2.3c-0.6,0-1-0.4-1-1.3c0-0.4,0.2-1.2,0.4-2.1c0.4-1.8,0.6-2.8,0.7-3.2c0.2-0.1,1.4-0.3,1.6-0.3
		c0.1,0,0.2,0.2,0.1,0.5c-0.2,0.9-0.8,3-1,4.3c-0.1,0.4,0,0.6,0.2,0.6c0.6,0,2.2-2.2,2.7-3.6c0.1-0.3,0.1-0.5,0.2-0.9
		c0.1-0.4,0.2-0.6,0.2-0.7c0.2-0.2,1.3-0.3,1.6-0.3c-0.4,1.2-1,4.1-1.1,5.2c0,0.2,0,0.2,0.1,0.2c0.1,0,0.5-0.2,0.8-0.5
		C35.1,81.1,35.1,81.2,35.1,81.4"/>
	<path class="st0" d="M40.1,76.1c0.5,0,0.8,0.2,1,0.3c0.4-0.1,0.8-0.2,1.3-0.2c-0.2,0.6-0.9,3.6-1.1,5.2c0,0.2,0,0.2,0.1,0.2
		c0.1,0,0.5-0.2,0.8-0.5c0.1,0.1,0.1,0.2,0.1,0.4c0,0.3,0,0.6-0.3,0.8c-0.5,0.5-1.2,0.8-1.8,0.8c-0.4,0-0.6-0.3-0.5-1.1
		c0.1-0.4,0.1-0.7,0.2-1c-1.3,1.8-2.4,2-3.1,2c-0.7,0-1.2-0.6-1.2-1.7c0-1.1,0.5-2.7,1.8-4C38.6,76.2,39.6,76.1,40.1,76.1L40.1,76.1
		z M39.9,77.3c-0.5,0-1,0.2-1.5,1c-0.6,0.8-1,1.9-1,2.6c0,0.4,0.1,0.6,0.4,0.6c0.5,0,1.5-0.9,2.4-2.5c0.1-0.3,0.3-1.2,0.4-1.5
		C40.4,77.4,40.2,77.3,39.9,77.3L39.9,77.3z"/>
	<path class="st0" d="M56,76.1c0.6,0,0.8,0.3,0.8,0.9c0,0.7-0.6,2.7-0.9,4.3c0,0.1,0,0.2,0.1,0.2c0.1,0,0.5-0.2,0.8-0.5
		c0.1,0.1,0.1,0.2,0.1,0.4c0,0.4,0,0.6-0.2,0.8c-0.5,0.5-1.3,0.8-1.8,0.8c-0.7,0-0.9-0.3-0.7-0.9c0.2-0.8,0.8-3.1,0.9-3.9
		c0.1-0.4,0-0.5-0.2-0.5c-0.5,0-2.2,2.1-2.7,3.5c-0.1,0.4-0.2,0.7-0.3,1c-0.1,0.3-0.1,0.4-0.3,0.5c-0.1,0.1-0.8,0.3-1.6,0.3
		c0.2-0.7,1-3.9,1.1-4.8c0.1-0.4,0-0.5-0.2-0.5c-0.4,0-2.2,2.1-2.6,3.4c-0.2,0.5-0.2,0.7-0.3,1.1c-0.1,0.3-0.1,0.4-0.2,0.5
		c-0.2,0.1-0.8,0.3-1.6,0.3c0.2-1,0.6-2.5,0.8-3.9c0.3-1.6,0.4-2.3,0.4-2.6c0.3-0.1,1.3-0.3,1.5-0.3c0.2,0,0.2,0.5-0.3,2.6h0
		c1.7-2.3,2.8-2.6,3.5-2.6c0.5,0,0.8,0.3,0.8,0.9c0,0.3-0.1,0.8-0.2,1.4C54.3,76.4,55.4,76.1,56,76.1L56,76.1z"/>
	<path class="st0" d="M61.7,76.1c1.3,0,1.7,0.8,1.7,1.6c0,2-2.4,2.5-2.9,2.5c-0.4,0-0.6-0.6-0.6-1.1c1.8-0.2,1.9-0.9,1.9-1.3
		c0-0.3-0.2-0.6-0.5-0.6c-0.8,0-1.8,1.5-1.8,3.1c0,0.8,0.3,1.3,1,1.3c0.9,0,1.7-0.6,2.1-1.1c0.2,0.1,0.3,0.3,0.3,0.7
		c0,0.2,0,0.4-0.2,0.6c-0.5,0.6-1.5,1.2-2.8,1.2c-1.5,0-2.2-1-2.2-2.5c0-1.8,1.2-3.3,2-3.8C60.4,76.3,61,76.1,61.7,76.1L61.7,76.1z"
		/>
	<path class="st0" d="M65.8,82.1c-0.1,0.3-0.1,0.4-0.3,0.5c-0.1,0.1-0.9,0.3-1.7,0.3c0.3-1.4,1.3-6.5,1.6-7.9
		c0.3-1.6,0.4-1.9,0.4-2.2c0.6-0.1,1.2-0.2,1.6-0.2c0.2,0,0.2,0.2,0.1,0.6C67.1,75.2,66.1,80.4,65.8,82.1"/>
	<path class="st0" d="M73.4,76.1c0.6,0,0.9,0.3,0.9,0.8c0,0.5-0.6,2.8-0.9,4.4c0,0.1,0,0.2,0.1,0.2c0.1,0,0.5-0.2,0.8-0.5
		c0.1,0.1,0.1,0.2,0.1,0.4c0,0.3,0,0.6-0.3,0.8c-0.5,0.4-1.3,0.8-1.8,0.8c-0.7,0-0.9-0.3-0.7-0.9c0.1-0.5,0.7-2.7,0.9-4
		c0.1-0.4,0-0.6-0.1-0.6c-0.4,0-2.2,2.1-2.7,3.7c-0.1,0.3-0.2,0.5-0.2,0.9c-0.1,0.3-0.1,0.5-0.2,0.6c-0.1,0.1-0.8,0.3-1.6,0.3
		c0.4-1.4,1.4-6.5,1.6-7.8c0.3-1.7,0.3-1.9,0.3-2.2c0.8-0.1,1.2-0.2,1.5-0.2c0.2,0,0.2,0.2,0.1,0.7c-0.2,0.9-0.5,2.3-1.1,5.2
		C71.4,76.6,72.5,76.1,73.4,76.1L73.4,76.1z"/>
	<path class="st0" d="M79,76.1c1.7,0,2.4,1.3,2.4,2.7c0,2.4-1.6,4.3-3.7,4.3c-1.5,0-2.4-0.9-2.4-2.6c0-1.3,0.6-2.7,1.5-3.5
		C77.6,76.2,78.4,76.1,79,76.1L79,76.1z M78.8,77.3C78,77.3,77,79,77,80.6c0,0.8,0.3,1.2,0.8,1.2c0.9,0,1.8-1.5,1.8-3.4
		C79.6,77.7,79.4,77.3,78.8,77.3L78.8,77.3z"/>
	<path class="st0" d="M86.8,76.1c0.5,0,0.7,0.4,0.7,0.4c0,0.4-0.4,1.2-0.7,1.5c-0.3-0.2-0.4-0.2-0.6-0.2c-0.3,0-0.6,0.2-1.1,0.9
		c-0.4,0.6-0.6,1.3-1.1,3.3c-0.1,0.4-0.2,0.5-0.3,0.6c-0.1,0.1-1.2,0.2-1.6,0.3c0.3-1.2,0.9-3.5,1-5.1c0.1-0.3,0-0.4-0.1-0.4
		c-0.1,0-0.4,0.1-0.7,0.3c-0.1-0.1-0.1-0.3-0.1-0.5c0-0.2,0.1-0.5,0.5-0.7c0.5-0.3,1-0.5,1.4-0.5c0.6,0,0.7,0.4,0.3,2.2
		C85.6,76.2,86.4,76.1,86.8,76.1L86.8,76.1z"/>
	<path class="st0" d="M95,72.6c0.4,0,0.9,0.2,1.1,0.4c0,0.2-0.1,0.4-0.2,0.6c-0.1,0.2-0.3,0.5-0.4,0.4c-0.1-0.1-0.3-0.1-0.6-0.1
		c-0.6,0-1.2,1-1.4,2.5c0.7,0,1.3-0.1,1.8-0.2c-0.1,0.5-0.3,0.9-0.6,1.1c-0.2,0.1-0.6,0.2-1.4,0.3c-0.3,2.1-0.5,3.2-0.8,4.7
		c-0.6,2.8-2,3.7-3.4,3.7c-0.8,0-1.4-0.4-1.4-0.7c0-0.2,0.3-0.7,0.4-0.8c0.2,0.2,0.6,0.3,1,0.3c1.1,0,1.5-1.3,1.9-3.2
		c0.3-1.6,0.5-2.9,0.7-3.9c-0.4,0-0.8,0-0.9-0.1c0.1-0.2,0.1-0.3,0.2-0.5c0.2-0.4,0.6-0.5,0.8-0.6C92.4,73.4,93.6,72.6,95,72.6
		L95,72.6z"/>
	<path class="st0" d="M98.3,76.1c1.2,0,1.7,0.8,1.7,1.6c0,2-2.4,2.5-2.9,2.5c-0.4,0-0.6-0.6-0.6-1.1c1.8-0.2,1.9-0.9,1.9-1.3
		c0-0.3-0.2-0.6-0.5-0.6c-0.8,0-1.8,1.5-1.8,3.1c0,0.8,0.3,1.3,1,1.3c0.9,0,1.7-0.6,2.1-1.1c0.2,0.1,0.3,0.3,0.3,0.7
		c0,0.2,0,0.4-0.2,0.6c-0.5,0.6-1.5,1.2-2.8,1.2c-1.5,0-2.2-1-2.2-2.5c0-1.8,1.2-3.3,2-3.8C96.9,76.3,97.5,76.1,98.3,76.1L98.3,76.1
		z"/>
	<path class="st0" d="M103.6,76.1c0.7,0,1.2,0.3,1.3,0.6c-0.1,0.3-0.2,0.5-0.3,0.7c-0.2,0.2-0.3,0.2-0.6,0.1
		c-0.2-0.1-0.4-0.2-0.7-0.2c-0.4,0-0.8,0.3-0.8,0.7c0,0.3,0.3,0.6,1,1.1c0.8,0.6,1,1.1,1,1.7c0,1.3-1,2.2-2.6,2.2
		c-1.1,0-1.8-0.6-1.9-0.8c0-0.2,0.1-0.5,0.3-0.7c0.1-0.2,0.4-0.3,0.7-0.1c0.3,0.2,0.8,0.4,1.2,0.4c0.5,0,0.8-0.3,0.8-0.6
		c0-0.3-0.3-0.6-1.1-1.3c-0.7-0.6-0.9-1.1-0.9-1.5C101.1,77.1,102.2,76.1,103.6,76.1L103.6,76.1z"/>
	<path class="st0" d="M109.1,80.8c-0.1,1-0.2,1.2-0.5,1.4c-0.7,0.5-1.3,0.8-2,0.8c-0.6,0-1.1-0.4-0.9-1.8c0.1-1,0.4-2,0.7-3.5
		c-0.3,0-0.7,0-0.8-0.1c0.1-0.2,0.1-0.3,0.2-0.4c0.2-0.4,0.6-0.6,0.9-0.6c0.5-1.3,0.7-1.4,1-1.6c0.2-0.1,0.7-0.2,1.2-0.3
		c-0.2,0.6-0.4,1.1-0.6,1.8c0.7,0,1.3-0.1,1.8-0.2c-0.1,0.5-0.3,0.9-0.6,1.1c-0.2,0.1-0.6,0.2-1.5,0.2c-0.3,1.2-0.6,3-0.7,3.4
		c0,0.4,0,0.6,0.2,0.6c0.2,0,0.9-0.4,1.4-0.8L109.1,80.8z"/>
	<path class="st0" d="M114.3,76.1c0.5,0,0.8,0.2,1,0.3c0.4-0.1,0.8-0.2,1.3-0.2c-0.2,0.6-0.9,3.6-1.1,5.2c0,0.2,0,0.2,0.1,0.2
		c0.1,0,0.5-0.2,0.8-0.5c0.1,0.1,0.1,0.2,0.1,0.4c0,0.3,0,0.6-0.3,0.8c-0.5,0.5-1.2,0.8-1.8,0.8c-0.4,0-0.6-0.3-0.5-1.1
		c0.1-0.4,0.1-0.7,0.2-1c-1.3,1.8-2.4,2-3.1,2c-0.7,0-1.2-0.6-1.2-1.7c0-1.1,0.5-2.7,1.8-4C112.7,76.2,113.8,76.1,114.3,76.1
		L114.3,76.1z M114.1,77.3c-0.5,0-1,0.2-1.5,1c-0.6,0.8-1,1.9-1,2.6c0,0.4,0.1,0.6,0.4,0.6c0.5,0,1.5-0.9,2.4-2.5
		c0.1-0.3,0.3-1.2,0.4-1.5C114.6,77.4,114.4,77.3,114.1,77.3L114.1,77.3z"/>
	<path class="st0" d="M118.3,80.8c0.6,0,0.8,0.4,0.8,1c0,0.7-0.5,1.2-1.1,1.2c-0.6,0-0.9-0.3-0.9-0.9
		C117.1,81.4,117.6,80.8,118.3,80.8L118.3,80.8z M118.6,74.2c0.1-0.2,1.2-0.4,1.6-0.4c0.3,0,0.4,0.1,0.3,0.5c-0.2,0.8-1.1,4.3-1.3,5
		c-0.1,0.3-0.2,0.3-0.3,0.4c-0.4,0.1-0.8,0.2-0.9,0.2C118.1,79.2,118.4,75.1,118.6,74.2"/>
	<path class="st1" d="M139.1,1c-0.2,0-4.3-1-11.6-1c-6.9,0-14.2,0.8-21.6,2.5C80.4,8,58.3,10.8,40.1,10.8c-25.6,0-34.3-5.7-34.4-5.7
		L5.2,4.7L0,6.9v51.3l0.3,0.4c0.3,0.3,6.7,6.7,42.5,7h0h0c19.9-0.9,36.6-3.5,51.3-5.9c12.5-2,23.3-3.7,32.6-3.7c3,0,5.6,0.2,8.2,0.5
		l0.4,0.1l4.7-2.8V1.2L139.1,1z"/>
	<path class="st2" d="M1.2,7.7L1.2,7.7c0,0,25.3,13.1,104.9-4c20.1-4.5,32.7-1.5,32.7-1.5v50.9c-21.1-3-53.6,9.4-96,11.3
		C7.1,64,1.2,57.7,1.2,57.7V7.7z"/>
	<path class="st1" d="M10.4,45.2V34.9l-2.2,0.5c0,0-2,0.6-0.8-1.7c0.7-1.4,1.2-2.5,2.1-2.9c0.3-0.1,0.8-0.2,0.8-0.2l0.1-8.3
		c0,0,0.1-3.4,3.8-3.8c3.7-0.4,12.2-0.7,12.2-0.7s1.5-0.1,1.8,0.7c0.2,0.8,1.1,3.8,1.1,3.8s0.5,1.5-1.3,1.5
		c-1.8,0.1-10.2,0.3-10.2,0.3s-2.6-0.1-2.6,2.3c-0.1,2.3-0.1,4.2-0.1,4.2s5.5,0.6,6.4,0.8c1.4,0.2,1.8,1,0.1,1.4
		c-2.3,0.5-4.8,1-6.7,1.3c0.1,4.2,0,11,0,11s-0.2,3-2.7,3C10.4,48.1,10.4,45.2,10.4,45.2"/>
	<path class="st1" d="M32.7,28.9c0,0-9.3,0.2-10,10.8c-0.3,8.5,7,8.5,7,8.5s6.1,0.4,8.9-4.8c0.5-0.9,0.4-1.3,0.4-1.5
		c-0.1-0.2-0.7-0.7-2,0.8c-1.3,1.4-2.8,2.5-4.9,2.6c-2.1,0-5.2-0.7-5.3-5c0-4.3,3.8-7.1,6.1-7.1c1.5,0,3.3,1.4,3.3,3.5
		c-1.2,0.2-3.9,0.4-4.7,0.5c-0.6,0.1-3.2,1.2-3.2,2.3c0,0.7,2.2,0.4,2.2,0.4l6.2-0.7c0,0,3.4-0.3,3-3.7
		C39.2,31.9,36.8,28.6,32.7,28.9"/>
	<path class="st1" d="M50.7,29.1c-1.2-0.5-9-0.9-9,5.3c-0.2,5.6,5.9,4.5,6.2,9.2c0,3.5-5.1,1.9-5.3,1.8c-0.5-0.3-1.8-0.3-1.2,1.1
		c1,2.4,11.1,2.6,11.1-3.3c-0.1-5.2-6.7-7.1-6.9-9.7c-0.1-1.5,0.5-3.2,4.4-3C52,30.6,51.8,29.5,50.7,29.1"/>
	<path class="st1" d="M56.2,25c-1.3,0-2,2-2.4,3.1c-0.5,1.1,0.2,1.4,1.1,1.2c0.8-0.2,1-0.2,1-0.2v17c0,0.7,0.4,2.2,1.7,2
		c2.1-0.2,2.8-3.2,2.8-3.2l1.1-16.7c0,0,2.9-0.4,5.3-1c2-0.6,0.1-1.2-1.2-1.3c-0.3,0-3.6-0.5-3.6-0.5s0.6-4.6,0.7-5.3
		c0.1-1,0.6-3.7-2-3c-2.6,0.7-3.8,1.9-4.1,2.4c-0.4,0.6-0.3,1.4-0.3,1.4V25z"/>
	<path class="st1" d="M76.2,30.9l-2.4-2c0,0-1.5-0.4-3.4,0.5c0,0-5.6,2-6.6,8.7c-0.6,3.5,0.3,9.6,6.2,10c4.3,0,6.6-3.8,7.2-5.1
		c0.3-0.6,0.3-1.2,0-1.9c-0.4-0.8-1.1,0-1.6,0.9c-0.5,0.8-1.8,3.1-3.9,3.1c-1.3,0-3.9-0.6-3.6-4.5c0.3-3.9,2.1-7.7,6.2-8.1
		C77.4,32.5,76.2,30.9,76.2,30.9"/>
	<path class="st1" d="M87.1,29.1c-12.3,4.1-9.1,21.3-0.2,19c5.6-1.6,7.2-6.7,6.4-10.7c-0.9-4.6-6.1-3-6.3,0.5c0,0.9,0.1,1.2,0.7,1.3
		c1.2,0.1,1-3.1,2.7-2.8c1.7,0.3,1,4.8,0.4,5.9c-0.6,1.1-2.2,3.3-4.5,3.2c-2.3-0.1-3.5-3.3-2.8-6.5c0.7-3.2,3-5.2,6.8-5.5
		c3.1-0.2,1.4-2.6,1.4-2.6S89.7,28.2,87.1,29.1"/>
	<path class="st1" d="M111.2,29.1c-12.3,4.1-9.1,21.3-0.2,19c5.6-1.6,7.2-6.7,6.4-10.7c-0.9-4.6-6.1-3-6.3,0.5
		c0,0.9,0.1,1.2,0.7,1.3c1.2,0.1,1-3.1,2.7-2.8c1.7,0.3,1,4.8,0.4,5.9c-0.6,1.1-2.2,3.3-4.5,3.2c-2.3-0.1-3.5-3.3-2.8-6.5
		c0.7-3.2,3-5.2,6.8-5.5c3.1-0.2,1.4-2.6,1.4-2.6S113.9,28.2,111.2,29.1"/>
	<path class="st1" d="M96.1,24.3l-0.1,22c0,0,0.3,1.9,1.6,1.9c1.3,0,2.3-1.2,2.5-2.1c0.2-0.9,2.6-24.1,2.6-24.1s0-3-2.6-1.9
		C97.5,21.2,96.1,22.3,96.1,24.3"/>
	<path class="st1" d="M124.4,30.5c0,0,0,0.8,0.1,1.2c3.9-3.1,8.1-3.3,8.4-1.5c0.1,1.1-2.7,1.6-2.7,1.6c-5.6,1.9-5.5,8.5-5.5,8.5
		s-0.1,2,0,3.3c0,1.3,0,1.7-0.4,2.1c-0.3,0.4-2.9,2.5-3.7,2.4c-0.8-0.1-1-1.3-1-1.3s0.2-14.9,0.3-15.2c0,0,0-0.6,0.4-0.8
		c0.4-0.2,2.7-1.1,2.7-1.1S124.3,29.2,124.4,30.5"/>
	<path class="st1" d="M130.8,47.2c-0.5,0.5-1.1,0.7-1.8,0.7c-0.7,0-1.3-0.2-1.8-0.7c-0.5-0.5-0.7-1.1-0.7-1.8c0-0.7,0.3-1.4,0.8-1.9
		c0.5-0.5,1.1-0.7,1.8-0.7c0.7,0,1.3,0.2,1.8,0.7c0.5,0.5,0.7,1.1,0.7,1.8C131.6,46.1,131.3,46.7,130.8,47.2 M127.5,43.9
		c-0.4,0.4-0.6,0.9-0.6,1.5c0,0.6,0.2,1.1,0.6,1.5c0.4,0.4,0.9,0.6,1.5,0.6c0.6,0,1.1-0.2,1.5-0.6c0.4-0.4,0.6-0.9,0.6-1.5
		c0-0.6-0.2-1.1-0.6-1.5c-0.4-0.4-0.9-0.6-1.5-0.6C128.4,43.3,127.9,43.5,127.5,43.9 M127.9,46.8V44c0.2,0,0.4,0,0.8,0
		c0.3,0,0.5,0,0.6,0c0.2,0,0.4,0.1,0.6,0.1c0.3,0.1,0.4,0.4,0.4,0.7c0,0.2-0.1,0.4-0.2,0.5c-0.1,0.1-0.3,0.2-0.5,0.2
		c0.2,0,0.3,0.1,0.4,0.2c0.2,0.1,0.3,0.3,0.3,0.6v0.3c0,0,0,0.1,0,0.1c0,0,0,0.1,0,0.1l0,0.1h-0.7c0-0.1,0-0.2,0-0.4
		c0-0.2,0-0.3,0-0.3c0-0.1-0.1-0.2-0.2-0.2c-0.1,0-0.1,0-0.3,0l-0.2,0h-0.2v1H127.9z M129.3,44.6c-0.1,0-0.2-0.1-0.4-0.1h-0.2v0.8
		h0.3c0.2,0,0.3,0,0.4-0.1c0.1-0.1,0.1-0.2,0.1-0.3C129.5,44.7,129.4,44.6,129.3,44.6"/>
</g>
</svg>
